<?xml version="1.0" encoding="UTF-8"?>
<svg xmlns="http://www.w3.org/2000/svg" xmlns:xlink="http://www.w3.org/1999/xlink" viewBox="0 0 217 218">
  <defs>
    <style>
      .cls-1 {
        fill: #fff;
      }

      .cls-2 {
        isolation: isolate;
      }

      .cls-3 {
        opacity: .48;
      }

      .cls-4 {
        fill: #f000f4;
        mix-blend-mode: screen;
        opacity: .45;
      }

      .cls-5 {
        opacity: .27;
      }

      .cls-6 {
        fill: url(#linear-gradient);
        filter: url(#outer-glow-1);
      }
    </style>
    <linearGradient id="linear-gradient" x1="-288.46" y1="195.66" x2="-385.43" y2="363.61" gradientTransform="translate(61.6 -317.15) rotate(-56.99)" gradientUnits="userSpaceOnUse">
      <stop offset="0" stop-color="#4b0094" stop-opacity=".1"/>
      <stop offset="1" stop-color="#000047"/>
    </linearGradient>
    <filter id="outer-glow-1" filterUnits="userSpaceOnUse">
      <feOffset dx="0" dy="0"/>
      <feGaussianBlur result="blur" stdDeviation="4"/>
      <feFlood flood-color="#9414c9" flood-opacity=".15"/>
      <feComposite in2="blur" operator="in"/>
      <feComposite in="SourceGraphic"/>
    </filter>
  </defs>
  <g class="cls-2">
    <g id="Layer_2" data-name="Layer 2">
      <g id="Capa_1" data-name="Capa 1">
        <g>
          <circle class="cls-6" cx="108.21" cy="109.19" r="96.19"/>
          <g class="cls-5">
            <path class="cls-4" d="M86.31,46.46c1.38,9.37,15.98,14.99,32.62,12.55,16.64-2.44,29.02-12.02,27.64-21.4-1.38-9.37-15.98-14.99-32.62-12.55-16.64,2.44-29.02,12.02-27.64,21.39Z"/>
            <path class="cls-4" d="M45.23,64.89c2.71,4.87,11.92,4.91,20.56,.09,8.64-4.82,13.45-12.67,10.73-17.53-2.71-4.87-11.92-4.91-20.56-.09-8.64,4.82-13.45,12.67-10.73,17.53Z"/>
          </g>
          <g class="cls-3">
            <path class="cls-1" d="M118.58,145.27c-.91,.3-1.84,.34-2.77,.18l-9.65-2.1c-1.43-.26-.91-.71-.59-.95,1.45-1.09,1.72-1.31,3.09-2.85,.14-.18,.4-.2,.63-.14l7.41,1.64c.28,.04,.59-.06,.73-.24l19.51-22.05c.2-.2,.24-.48,.14-.79l-9.3-27.93c-.1-.3-.3-.5-.59-.55l-28.82-5.89c-.28-.04-.59,.06-.73,.24l-19.53,21.99c-.2,.2-.22,.55-.14,.79l9.3,27.93c.08,.24,.3,.5,.59,.55l7.88,1.62c4.18,.63,5.72-2.24,5.01-4.36l-9.18-27.57c-.12-.36,.06-.83,.48-.97l3.09-1.03c.36-.12,.83,.06,.97,.48l9.18,27.57c1.59,4.79-.08,8.44-4.63,9.95-1.39,.46-2.48,.83-6.08,.34l-7.57-1.52c-1.88-.38-3.41-1.76-4.02-3.58l-9.3-27.93c-.61-1.82-.2-3.84,1.07-5.27l19.51-22.05c1.23-1.35,3.29-2.04,5.09-1.69l28.84,5.95c1.88,.38,3.41,1.76,4.02,3.58l9.3,27.93c.61,1.82,.2,3.84-1.07,5.27l-19.51,22.05c-.67,.63-1.51,1.11-2.36,1.39Zm1.06-21.69c-10.6,3.53-14.4-.59-15.77-4.71-.12-.36,.06-.83,.48-.97l3.15-1.05c.36-.12,.75,.02,.87,.38,1.55,3.05,3.47,4.16,9.89,2.02,5.09-1.69,6.89-3.57,5.98-6.3-.52-1.58-1.51-2.52-9.71-.67-6.83,1.53-11.43,1.45-13.19-3.82-1.63-4.91,1.52-9.19,8.42-11.49,7.76-2.58,12.46-1.19,14.88,4.47,.06,.18,.06,.38,0,.61-.08,.16-.22,.34-.4,.4l-3.15,1.05c-.3,.1-.69-.04-.85-.32-1.84-3.09-4.08-3.56-9.05-1.9-5.57,1.86-5.6,4.02-5.11,5.47,.59,1.76,1.55,2.04,9.39,.51,7.78-1.51,11.75-1.29,13.49,3.92,1.71,5.35-1.64,9.83-9.33,12.4Z"/>
          </g>
        </g>
      </g>
    </g>
  </g>
</svg>