<?xml version="1.0" encoding="UTF-8"?>
<svg xmlns="http://www.w3.org/2000/svg" xmlns:xlink="http://www.w3.org/1999/xlink" viewBox="0 0 146 147">
  <defs>
    <style>
      .cls-1 {
        fill: #fff;
      }

      .cls-2 {
        isolation: isolate;
      }

      .cls-3 {
        opacity: .38;
      }

      .cls-4 {
        fill: #f000f4;
        mix-blend-mode: screen;
        opacity: .45;
      }

      .cls-5 {
        opacity: .27;
      }

      .cls-6 {
        fill: url(#linear-gradient);
        filter: url(#outer-glow-1);
      }
    </style>
    <linearGradient id="linear-gradient" x1="-207.88" y1="324.39" x2="-268.99" y2="430.22" gradientTransform="translate(-137.72 -313.04) rotate(-60.9)" gradientUnits="userSpaceOnUse">
      <stop offset="0" stop-color="#4b0094" stop-opacity=".1"/>
      <stop offset="1" stop-color="#000047"/>
    </linearGradient>
    <filter id="outer-glow-1" filterUnits="userSpaceOnUse">
      <feOffset dx="0" dy="0"/>
      <feGaussianBlur result="blur" stdDeviation="4"/>
      <feFlood flood-color="#9414c9" flood-opacity=".15"/>
      <feComposite in2="blur" operator="in"/>
      <feComposite in="SourceGraphic"/>
    </filter>
  </defs>
  <g class="cls-2">
    <g id="Layer_2" data-name="Layer 2">
      <g id="Capa_1" data-name="Capa 1">
        <g class="cls-3">
          <circle class="cls-6" cx="72.89" cy="73.62" r="60.62"/>
          <g class="cls-5">
            <path class="cls-4" d="M56.43,35.12c1.27,5.83,10.69,8.74,21.05,6.49,10.36-2.25,17.73-8.8,16.46-14.64-1.27-5.83-10.69-8.74-21.05-6.49-10.36,2.25-17.73,8.8-16.46,14.64Z"/>
            <path class="cls-4" d="M31.4,48.47c1.91,2.94,7.7,2.57,12.93-.83,5.23-3.4,7.91-8.54,6-11.48-1.91-2.94-7.7-2.57-12.93,.83-5.23,3.4-7.91,8.54-6,11.48Z"/>
          </g>
          <path class="cls-1" d="M75.25,52.98c-.46,.41-.92,.85-1.38,1.31-.32-.29-.63-.58-.95-.85-5.17-4.45-10.3-6.28-13.34-4.46-2.92,1.75-3.71,6.82-2.38,13.12,.13,.61,.28,1.23,.44,1.86-.41,.13-.82,.26-1.21,.4-6.43,2.25-10.59,5.79-10.53,9.33,.06,3.4,4.05,6.62,10.18,8.62,.59,.19,1.21,.37,1.84,.54-.17,.73-.32,1.45-.44,2.14-1.09,6.24-.09,11.16,2.87,12.81,3.06,1.7,8.12-.17,13-4.58,.39-.35,.77-.72,1.16-1.1,.52,.48,1.03,.94,1.54,1.37,4.86,4.06,9.62,5.65,12.53,3.91,3-1.8,3.91-7.12,2.53-13.55-.11-.51-.23-1.03-.38-1.56,.68-.21,1.33-.43,1.96-.66,5.94-2.18,9.7-5.51,9.64-8.9-.06-3.5-4.21-6.94-10.47-8.96-.48-.15-.97-.3-1.48-.44,.08-.36,.16-.72,.22-1.08,1.27-6.7,.29-12.06-2.8-13.79s-7.76,.19-12.56,4.5Zm12.99,8.84c-.06,.32-.13,.64-.2,.97-2.32-.48-4.89-.8-7.64-.98-1.57-2.16-3.2-4.13-4.82-5.83,.43-.42,.85-.83,1.28-1.21,4.11-3.69,7.98-5.18,9.77-4.18,1.91,1.06,2.71,5.45,1.61,11.23Zm2.89,4.26c2.77,.89,5.06,2.08,6.64,3.39,1.42,1.18,2.15,2.35,2.16,3.32,.03,2.05-2.99,4.73-8.07,6.6-.58,.21-1.19,.42-1.82,.61-.75-2.24-1.74-4.61-2.95-7.06,1.12-2.5,2.02-4.95,2.69-7.25,.46,.13,.91,.26,1.34,.4Zm-1.99,25.73c-.31,1.82-.97,3.04-1.8,3.53-1.76,1.06-5.59-.23-9.74-3.69-.48-.4-.96-.82-1.44-1.27,1.57-1.77,3.14-3.83,4.66-6.11,2.68-.3,5.24-.74,7.59-1.32,.13,.48,.24,.96,.34,1.42,.61,2.84,.73,5.42,.38,7.45Zm-17.4-.37c-2.16,1.95-4.33,3.34-6.26,4.05-1.73,.64-3.11,.68-3.96,.21-1.8-1-2.6-4.95-1.67-10.28,.11-.65,.25-1.31,.41-2,2.35,.5,4.9,.86,7.57,1.06,1.6,2.19,3.28,4.2,4.96,5.95-.35,.35-.71,.69-1.06,1.01Zm-14.91-11.42c-5.25-1.71-8.48-4.31-8.52-6.36-.04-2.18,3.36-5.07,8.91-7.02,.36-.12,.72-.24,1.09-.36,.74,2.29,1.7,4.68,2.86,7.1-1.08,2.44-1.97,4.85-2.64,7.15-.59-.16-1.16-.33-1.71-.51Zm17.1-18.35c-1.11,.02-2.22,.06-3.3,.13,1.07-1.46,2.18-2.82,3.29-4.06,1.13,1.18,2.26,2.51,3.37,3.94-1.1-.03-2.22-.03-3.36,0Zm-13.28,3.97c1.59-.39,3.31-.7,5.12-.95-.58,.94-1.15,1.9-1.7,2.89s-1.06,1.96-1.55,2.94c-.73-1.66-1.36-3.3-1.87-4.88Zm3.6,13.44c.57,.96,1.17,1.9,1.78,2.81-1.8-.2-3.52-.47-5.14-.81,.47-1.58,1.05-3.23,1.72-4.9,.52,.97,1.07,1.93,1.64,2.9h0Zm13.46,5.45c-1.08,1.52-2.17,2.9-3.26,4.14-1.16-1.22-2.33-2.57-3.46-4.02,1.1,.03,2.21,.04,3.33,.02h0c1.14-.02,2.27-.07,3.39-.14Zm10-3.91c-1.63,.4-3.38,.73-5.2,.99,.56-.92,1.12-1.88,1.66-2.85s1.09-2.01,1.59-3.01c.77,1.69,1.42,3.32,1.95,4.88Zm-5.54-16.26c1.87,.18,3.63,.43,5.26,.76-.47,1.61-1.07,3.3-1.78,5.04-.53-.96-1.08-1.94-1.67-2.91-.59-.99-1.2-1.95-1.82-2.89Zm-.25,4.12c.91,1.52,1.74,3.02,2.5,4.49-.71,1.52-1.5,3.06-2.36,4.61s-1.73,3-2.63,4.39c-1.69,.16-3.42,.25-5.17,.28h0c-1.75,.03-3.47,0-5.15-.11-.97-1.38-1.91-2.82-2.81-4.31h0c-.9-1.5-1.72-3.01-2.48-4.51,.71-1.53,1.49-3.07,2.33-4.59h0c.85-1.53,1.75-3,2.67-4.4,1.66-.15,3.37-.24,5.12-.26,1.77-.03,3.49,0,5.14,.08,.96,1.38,1.91,2.83,2.81,4.34Zm-21.11-17.44c1.87-1.12,6.07,.37,10.53,4.22,.28,.25,.57,.5,.86,.77-1.61,1.78-3.2,3.81-4.71,6.01-2.68,.28-5.22,.71-7.52,1.27-.15-.58-.29-1.15-.41-1.71-1.14-5.41-.5-9.5,1.26-10.56Zm8.86,19.64c1.35-2.43,4.42-3.31,6.86-1.95s3.31,4.42,1.95,6.86c-1.35,2.43-4.42,3.31-6.86,1.95s-3.31-4.42-1.95-6.86Z"/>
        </g>
      </g>
    </g>
  </g>
</svg>