<?xml version="1.0" encoding="UTF-8"?>
<svg xmlns="http://www.w3.org/2000/svg" xmlns:xlink="http://www.w3.org/1999/xlink" viewBox="0 0 105 105">
  <defs>
    <style>
      .cls-1 {
        fill: #fff;
      }

      .cls-2 {
        isolation: isolate;
      }

      .cls-3 {
        opacity: .41;
      }

      .cls-4 {
        fill: url(#radial-gradient);
        mix-blend-mode: screen;
        opacity: .11;
      }

      .cls-5 {
        fill: url(#linear-gradient);
        filter: url(#outer-glow-1);
      }
    </style>
    <linearGradient id="linear-gradient" x1="6472.36" y1="4.44" x2="6396.32" y2="30.66" gradientTransform="translate(6470.55 622.45) rotate(-174.8) scale(1 -1)" gradientUnits="userSpaceOnUse">
      <stop offset="0" stop-color="#4b0094" stop-opacity=".1"/>
      <stop offset="1" stop-color="#000047"/>
    </linearGradient>
    <filter id="outer-glow-1" filterUnits="userSpaceOnUse">
      <feOffset dx="0" dy="0"/>
      <feGaussianBlur result="blur" stdDeviation="4"/>
      <feFlood flood-color="#9414c9" flood-opacity=".15"/>
      <feComposite in2="blur" operator="in"/>
      <feComposite in="SourceGraphic"/>
    </filter>
    <radialGradient id="radial-gradient" cx="1545.57" cy="-1197.71" fx="1545.57" fy="-1197.71" r="57.41" gradientTransform="translate(-828.23 1786.52) rotate(-26.39)" gradientUnits="userSpaceOnUse">
      <stop offset=".05" stop-color="#e0a326"/>
      <stop offset="1" stop-color="#cc2db4"/>
    </radialGradient>
  </defs>
  <g class="cls-2">
    <g id="Layer_2" data-name="Layer 2">
      <g id="Capa_1" data-name="Capa 1">
        <g>
          <circle class="cls-5" cx="52.47" cy="52.9" r="39.9"/>
          <path class="cls-4" d="M20.51,63.87c-2.43-2.85-3.59-8.41-4.11-11.1-1.22-6.34-.51-12.94,2.43-18.72,7.68-15.13,25-15.47,30.74-13.26,5.74,2.21,3.54,8.77-3.25,12.01-6.79,3.24-13.47,6.42-15.62,11.75-2.15,5.33,2.47,13.83-1.76,18.2-1.4,1.44-3.57,3.24-5.76,2.83-1.02-.19-1.9-.81-2.66-1.7Z"/>
          <g class="cls-3">
            <path class="cls-1" d="M67.82,52.91c.66-.45,.8-1.37,.35-2.03-.29-.43-.77-.63-1.25-.61,0,0,0,0,0,0-.09,0-.18,.02-.26,.04,0,0,0,0,0,0-.09,.02-.17,.05-.25,.08,0,0,0,0,0,0-.08,.04-.16,.08-.24,.13-.03,.03-.06,.05-.12,.07l-11.29,9.43,.3,.37,.94,1.13,11.84-8.62Z"/>
            <path class="cls-1" d="M39.06,73.1c-.09,.05-.1,.19-.02,.25,.03,.03,.05,.06,.11,.07l4.92,.79-2.59-3.11-2.41,2.01Z"/>
            <path class="cls-1" d="M52.84,61.62h0s-.57,.48-.57,.48l.44-.05s.02,.01,.04,.01l2.62-.33-1.09-1.31-1.44,1.2Z"/>
            <path class="cls-1" d="M74.64,44.53l-3.9,3.23,2.46,2.95,.11,.13c.24-.12,.48-.29,.66-.45,1.74-1.45,2.06-4.04,.67-5.86Zm-.94,4.12c-.1-.12-.11-.32,.01-.45,.25-.29,.35-.7,.21-1.05,0-.03-.02-.06-.02-.09-.04-.17,.06-.36,.23-.4s.36,.06,.4,.23c.23,.58,.08,1.25-.38,1.74-.12,.13-.32,.14-.45,.02Z"/>
            <path class="cls-1" d="M68.12,53.36l-11.83,8.61c1.08,1.31,1.59,1.9,1.8,2.15,4.94-3.91,9.75-7.95,10.35-11.06-.07,.08-.14,.16-.23,.23-.03,.03-.06,.05-.09,.08Z"/>
            <path class="cls-1" d="M65.64,50.2c.42-.35,.95-.5,1.46-.46-1.76-1.74-3.61-1.81-14.76,7.48l2,2.39,11.3-9.42Z"/>
            <path class="cls-1" d="M70.13,47.9c-.05-.06-.07-.12-.07-.2,0-.04,.01-.08,.03-.11,.02-.03,.04-.06,.07-.08l2.2-1.83,1.89-1.57c-.7-.71-1.62-1.13-2.62-1.23-2.35-.21-4.42,1.51-4.61,3.87-.21,2.35,1.51,4.42,3.87,4.61,.64,.06,1.28-.02,1.89-.27l-2.65-3.18h0Z"/>
            <path class="cls-1" d="M49.04,60.39l4.71-.59-1.86-2.23-2.99,2.49c-.06,.05-.1,.13-.05,.22,.02,.09,.1,.12,.19,.1Z"/>
            <path class="cls-1" d="M45.08,71c5.18-2.04,9.41-4.25,12.58-6.52l-1.85-2.22-4.32,.51h0s-9.58,7.96-9.58,7.96l2.6,3.12h.01s0,.01,0,.01l.1,.12c.08,.06,.18,.08,.28,.03,.15-.07,.22-.23,.15-.38l-.29-2.06c-.03-.26,.1-.47,.33-.56Z"/>
          </g>
        </g>
      </g>
    </g>
  </g>
</svg>