<?xml version="1.0" encoding="UTF-8"?>
<svg xmlns="http://www.w3.org/2000/svg" xmlns:xlink="http://www.w3.org/1999/xlink" viewBox="0 0 1227.3 1195.76">
  <defs>
    <style>
      .cls-1 {
        fill: url(#radial-gradient-59);
      }

      .cls-1, .cls-2, .cls-3, .cls-4, .cls-5, .cls-6, .cls-7, .cls-8, .cls-9, .cls-10, .cls-11, .cls-12, .cls-13, .cls-14, .cls-15, .cls-16, .cls-17, .cls-18, .cls-19, .cls-20, .cls-21, .cls-22, .cls-23, .cls-24, .cls-25, .cls-26, .cls-27, .cls-28, .cls-29, .cls-30, .cls-31, .cls-32, .cls-33, .cls-34, .cls-35, .cls-36, .cls-37, .cls-38 {
        opacity: .25;
      }

      .cls-39 {
        fill: url(#radial-gradient);
      }

      .cls-39, .cls-40, .cls-41, .cls-42, .cls-43, .cls-44 {
        mix-blend-mode: screen;
      }

      .cls-45 {
        fill: url(#radial-gradient-47);
      }

      .cls-45, .cls-46, .cls-47, .cls-48, .cls-49, .cls-50, .cls-51, .cls-52, .cls-53, .cls-54, .cls-55, .cls-56, .cls-57, .cls-58, .cls-59, .cls-60, .cls-61 {
        opacity: .5;
      }

      .cls-2 {
        fill: url(#radial-gradient-19);
      }

      .cls-3 {
        fill: url(#radial-gradient-21);
      }

      .cls-4 {
        fill: url(#radial-gradient-36);
      }

      .cls-40 {
        fill: url(#radial-gradient-41);
      }

      .cls-5 {
        fill: url(#radial-gradient-37);
      }

      .cls-6 {
        fill: url(#radial-gradient-22);
      }

      .cls-7 {
        fill: url(#radial-gradient-54);
      }

      .cls-41 {
        fill: url(#radial-gradient-29);
      }

      .cls-62 {
        isolation: isolate;
      }

      .cls-8 {
        fill: url(#radial-gradient-60);
      }

      .cls-9 {
        fill: url(#radial-gradient-51);
      }

      .cls-46 {
        fill: url(#radial-gradient-3);
      }

      .cls-10 {
        fill: url(#radial-gradient-39);
      }

      .cls-11 {
        fill: url(#radial-gradient-15);
      }

      .cls-12 {
        fill: url(#radial-gradient-57);
      }

      .cls-47 {
        fill: url(#radial-gradient-28);
      }

      .cls-13 {
        fill: url(#radial-gradient-33);
      }

      .cls-14 {
        fill: url(#radial-gradient-26);
      }

      .cls-48 {
        fill: url(#radial-gradient-9);
      }

      .cls-49 {
        fill: url(#radial-gradient-10);
      }

      .cls-15 {
        fill: url(#radial-gradient-50);
      }

      .cls-16 {
        fill: url(#radial-gradient-13);
      }

      .cls-50 {
        fill: url(#radial-gradient-31);
      }

      .cls-17 {
        fill: url(#radial-gradient-17);
      }

      .cls-18 {
        fill: url(#radial-gradient-12);
      }

      .cls-19 {
        fill: url(#radial-gradient-16);
      }

      .cls-20 {
        fill: url(#radial-gradient-35);
      }

      .cls-21 {
        fill: url(#radial-gradient-53);
      }

      .cls-22 {
        fill: url(#radial-gradient-24);
      }

      .cls-51 {
        fill: url(#radial-gradient-32);
      }

      .cls-52 {
        fill: url(#radial-gradient-42);
      }

      .cls-23 {
        fill: url(#radial-gradient-61);
      }

      .cls-24 {
        fill: url(#radial-gradient-27);
      }

      .cls-25 {
        fill: url(#radial-gradient-38);
      }

      .cls-26 {
        fill: url(#radial-gradient-34);
      }

      .cls-27 {
        fill: url(#radial-gradient-11);
      }

      .cls-28 {
        fill: url(#radial-gradient-49);
      }

      .cls-29 {
        fill: url(#radial-gradient-55);
      }

      .cls-30 {
        fill: url(#radial-gradient-58);
      }

      .cls-53 {
        fill: url(#radial-gradient-30);
      }

      .cls-42 {
        fill: url(#radial-gradient-43);
      }

      .cls-43 {
        fill: url(#radial-gradient-2);
      }

      .cls-44 {
        fill: url(#radial-gradient-4);
      }

      .cls-54 {
        fill: url(#radial-gradient-7);
      }

      .cls-31 {
        fill: url(#radial-gradient-25);
      }

      .cls-32 {
        fill: url(#radial-gradient-20);
      }

      .cls-55 {
        fill: url(#radial-gradient-44);
      }

      .cls-33 {
        fill: url(#radial-gradient-18);
      }

      .cls-34 {
        fill: url(#radial-gradient-14);
      }

      .cls-35 {
        fill: url(#radial-gradient-56);
      }

      .cls-56 {
        fill: url(#radial-gradient-48);
      }

      .cls-36 {
        fill: url(#radial-gradient-23);
      }

      .cls-57 {
        fill: url(#radial-gradient-45);
      }

      .cls-58 {
        fill: url(#radial-gradient-46);
      }

      .cls-37 {
        fill: url(#radial-gradient-52);
      }

      .cls-59 {
        fill: url(#radial-gradient-8);
      }

      .cls-60 {
        fill: url(#radial-gradient-5);
      }

      .cls-38 {
        fill: url(#radial-gradient-40);
      }

      .cls-61 {
        fill: url(#radial-gradient-6);
      }
    </style>
    <radialGradient id="radial-gradient" cx="-1529.93" cy="-443.56" fx="-1529.93" fy="-443.56" r="1211.89" gradientTransform="translate(-324.97 157.72) rotate(-154.16)" gradientUnits="userSpaceOnUse">
      <stop offset="0" stop-color="#343434" stop-opacity="0"/>
      <stop offset=".36" stop-color="#343434" stop-opacity=".05"/>
      <stop offset=".59" stop-color="#343434" stop-opacity=".22"/>
      <stop offset=".79" stop-color="#343434" stop-opacity=".51"/>
      <stop offset=".97" stop-color="#343434" stop-opacity=".91"/>
      <stop offset="1" stop-color="#343434"/>
    </radialGradient>
    <radialGradient id="radial-gradient-2" cx="-1682.74" cy="-222.91" fx="-1682.74" fy="-222.91" r="1068.37" gradientTransform="translate(-462.15 -55.18) rotate(-140.89)" gradientUnits="userSpaceOnUse">
      <stop offset="0" stop-color="#343434"/>
      <stop offset=".03" stop-color="#252525"/>
      <stop offset=".08" stop-color="#191919"/>
      <stop offset=".15" stop-color="#121212"/>
      <stop offset=".33" stop-color="#111"/>
    </radialGradient>
    <radialGradient id="radial-gradient-3" cx="613.87" cy="-1112.23" fx="613.87" fy="-1112.23" r="251.54" gradientTransform="translate(-147.92 182.53) rotate(74.74)" gradientUnits="userSpaceOnUse">
      <stop offset="0" stop-color="#000047"/>
      <stop offset="1" stop-color="#000047"/>
    </radialGradient>
    <radialGradient id="radial-gradient-4" cx="642.94" cy="-1057.81" fx="642.94" fy="-1057.81" r="195.63" xlink:href="#radial-gradient-3"/>
    <radialGradient id="radial-gradient-5" cx="1160.32" cy="-798.35" fx="1160.32" fy="-798.35" r="216.35" gradientTransform="translate(144.71 -513.86) rotate(74.74) scale(1.12 .86)" xlink:href="#radial-gradient-3"/>
    <radialGradient id="radial-gradient-6" cx="1160.32" cy="-798.35" fx="1160.32" fy="-798.35" r="216.35" gradientTransform="translate(144.71 -513.86) rotate(74.74) scale(1.12 .86)" xlink:href="#radial-gradient-3"/>
    <radialGradient id="radial-gradient-7" cx="1160.32" cy="-798.35" fx="1160.32" fy="-798.35" r="216.35" gradientTransform="translate(144.71 -513.86) rotate(74.74) scale(1.12 .86)" xlink:href="#radial-gradient-3"/>
    <radialGradient id="radial-gradient-8" cx="1160.32" cy="-798.35" fx="1160.32" fy="-798.35" r="216.35" gradientTransform="translate(144.71 -513.86) rotate(74.74) scale(1.12 .86)" xlink:href="#radial-gradient-3"/>
    <radialGradient id="radial-gradient-9" cx="1160.32" cy="-798.35" fx="1160.32" fy="-798.35" r="216.35" gradientTransform="translate(144.71 -513.86) rotate(74.74) scale(1.12 .86)" xlink:href="#radial-gradient-3"/>
    <radialGradient id="radial-gradient-10" cx="1160.33" cy="-798.35" fx="1160.33" fy="-798.35" r="216.35" gradientTransform="translate(144.71 -513.86) rotate(74.74) scale(1.12 .86)" xlink:href="#radial-gradient-3"/>
    <radialGradient id="radial-gradient-11" cx="875.4" cy="-693.7" fx="875.4" fy="-693.7" r="66.02" gradientTransform="translate(144.71 -513.86) rotate(74.74) scale(1.12 .86)" xlink:href="#radial-gradient-3"/>
    <radialGradient id="radial-gradient-12" cx="2736.75" cy="383.6" fx="2736.75" fy="383.6" r="66.01" gradientTransform="translate(1708.78 -2237.92) rotate(94.68) scale(1.08 .9) skewX(-9.74)" xlink:href="#radial-gradient-3"/>
    <radialGradient id="radial-gradient-13" cx="4674.42" cy="706.18" fx="4674.42" fy="706.18" r="66.01" gradientTransform="translate(3693.65 -2829.18) rotate(116) scale(.98) skewX(-14.87)" xlink:href="#radial-gradient-3"/>
    <radialGradient id="radial-gradient-14" cx="2768.28" cy="396.21" fx="2768.28" fy="396.21" r="28.02" gradientTransform="translate(1708.78 -2237.92) rotate(94.68) scale(1.08 .9) skewX(-9.74)" xlink:href="#radial-gradient-3"/>
    <radialGradient id="radial-gradient-15" cx="2820.26" cy="423.87" fx="2820.26" fy="423.87" r="28.02" gradientTransform="translate(1708.78 -2237.92) rotate(94.68) scale(1.08 .9) skewX(-9.74)" xlink:href="#radial-gradient-3"/>
    <radialGradient id="radial-gradient-16" cx="2837.77" cy="380.94" fx="2837.77" fy="380.94" r="28.02" gradientTransform="translate(1708.78 -2237.92) rotate(94.68) scale(1.08 .9) skewX(-9.74)" xlink:href="#radial-gradient-3"/>
    <radialGradient id="radial-gradient-17" cx="3904.56" cy="704.3" fx="3904.56" fy="704.3" r="28.02" gradientTransform="translate(2836.99 -2716.13) rotate(106.77) scale(1.03 .94) skewX(-13.53)" xlink:href="#radial-gradient-3"/>
    <radialGradient id="radial-gradient-18" cx="3382.12" cy="559.44" fx="3382.12" fy="559.44" r="44.97" gradientTransform="translate(2284.17 -2537.07) rotate(100.88) scale(1.06 .92) skewX(-11.95)" xlink:href="#radial-gradient-3"/>
    <radialGradient id="radial-gradient-19" cx="2863.18" cy="476.96" fx="2863.18" fy="476.96" r="44.97" gradientTransform="translate(2246.41 -2153.23) rotate(104.44) scale(1.08 .9) skewX(-10.15)" xlink:href="#radial-gradient-3"/>
    <radialGradient id="radial-gradient-20" cx="1121.87" cy="-542.34" fx="1121.87" fy="-542.34" r="40.51" gradientTransform="translate(290.57 -770.54) rotate(77.09) scale(1.12 .86) skewX(-1.26)" xlink:href="#radial-gradient-3"/>
    <radialGradient id="radial-gradient-21" cx="1118.61" cy="-504.8" fx="1118.61" fy="-504.8" r="40.51" gradientTransform="translate(290.57 -770.54) rotate(77.09) scale(1.12 .86) skewX(-1.26)" xlink:href="#radial-gradient-3"/>
    <radialGradient id="radial-gradient-22" cx="1133.32" cy="-507.16" fx="1133.32" fy="-507.16" r="25.23" gradientTransform="translate(290.57 -770.54) rotate(77.09) scale(1.12 .86) skewX(-1.26)" xlink:href="#radial-gradient-3"/>
    <radialGradient id="radial-gradient-23" cx="1099.36" cy="-554.58" fx="1099.36" fy="-554.58" r="25.23" gradientTransform="translate(290.57 -770.54) rotate(77.09) scale(1.12 .86) skewX(-1.26)" xlink:href="#radial-gradient-3"/>
    <radialGradient id="radial-gradient-24" cx="1061.78" cy="-503.32" fx="1061.78" fy="-503.32" r="25.23" gradientTransform="translate(290.57 -770.54) rotate(77.09) scale(1.12 .86) skewX(-1.26)" xlink:href="#radial-gradient-3"/>
    <radialGradient id="radial-gradient-25" cx="998.57" cy="-739.49" fx="998.57" fy="-739.49" r="66.02" gradientTransform="translate(144.71 -513.86) rotate(74.74) scale(1.12 .86)" xlink:href="#radial-gradient-3"/>
    <radialGradient id="radial-gradient-26" cx="1182.32" cy="-555.65" fx="1182.32" fy="-555.65" r="25.23" gradientTransform="translate(290.57 -770.54) rotate(77.09) scale(1.12 .86) skewX(-1.26)" xlink:href="#radial-gradient-3"/>
    <radialGradient id="radial-gradient-27" cx="1061.88" cy="-542.99" fx="1061.88" fy="-542.99" r="25.23" gradientTransform="translate(290.57 -770.54) rotate(77.09) scale(1.12 .86) skewX(-1.26)" xlink:href="#radial-gradient-3"/>
    <radialGradient id="radial-gradient-28" cx="45.78" cy="-372.06" fx="45.78" fy="-372.06" r="144.44" gradientTransform="translate(25.37 436) rotate(82.73) scale(1.16 2.1) skewX(-43.07)" xlink:href="#radial-gradient-3"/>
    <radialGradient id="radial-gradient-29" cx="77.42" cy="-306.84" fx="77.42" fy="-306.84" r="89.5" gradientTransform="translate(25.37 436) rotate(82.73) scale(1.16 2.1) skewX(-43.07)" xlink:href="#radial-gradient-3"/>
    <radialGradient id="radial-gradient-30" cx="419.13" cy="-3.72" fx="419.13" fy="-3.72" r="333.22" gradientTransform="translate(973.78 128.87) rotate(82.73) scale(1.3 1.82) skewX(-35.66)" xlink:href="#radial-gradient-3"/>
    <radialGradient id="radial-gradient-31" cx="419.13" cy="-3.72" fx="419.13" fy="-3.72" r="333.21" gradientTransform="translate(973.78 128.87) rotate(82.73) scale(1.3 1.82) skewX(-35.66)" xlink:href="#radial-gradient-3"/>
    <radialGradient id="radial-gradient-32" cx="419.13" cy="-3.72" fx="419.13" fy="-3.72" r="333.21" gradientTransform="translate(973.78 128.87) rotate(82.73) scale(1.3 1.82) skewX(-35.66)" xlink:href="#radial-gradient-3"/>
    <radialGradient id="radial-gradient-33" cx="2433.79" cy="1429.97" fx="2433.79" fy="1429.97" r="101.66" gradientTransform="translate(5155.5 277.47) rotate(127.65) scale(1.1 2.15) skewX(8.59)" xlink:href="#radial-gradient-3"/>
    <radialGradient id="radial-gradient-34" cx="4910.46" cy="1731.93" fx="4910.46" fy="1731.93" r="101.67" gradientTransform="translate(9753.15 1896.59) rotate(166.3) scale(1.38 1.72) skewX(36.27)" xlink:href="#radial-gradient-3"/>
    <radialGradient id="radial-gradient-35" cx="2482.34" cy="1449.38" fx="2482.34" fy="1449.38" r="43.15" gradientTransform="translate(5155.5 277.47) rotate(127.65) scale(1.1 2.15) skewX(8.59)" xlink:href="#radial-gradient-3"/>
    <radialGradient id="radial-gradient-36" cx="2562.39" cy="1491.99" fx="2562.39" fy="1491.99" r="43.15" gradientTransform="translate(5155.5 277.47) rotate(127.65) scale(1.1 2.15) skewX(8.59)" xlink:href="#radial-gradient-3"/>
    <radialGradient id="radial-gradient-37" cx="2589.37" cy="1425.87" fx="2589.37" fy="1425.87" r="43.15" gradientTransform="translate(5155.5 277.47) rotate(127.65) scale(1.1 2.15) skewX(8.59)" xlink:href="#radial-gradient-3"/>
    <radialGradient id="radial-gradient-38" cx="3944.45" cy="1787.58" fx="3944.45" fy="1787.58" r="43.15" gradientTransform="translate(7831.95 1070.44) rotate(152.66) scale(1.22 1.94) skewX(32.92)" xlink:href="#radial-gradient-3"/>
    <radialGradient id="radial-gradient-39" cx="3279.36" cy="1621.46" fx="3279.36" fy="1621.46" r="69.26" gradientTransform="translate(6545.03 632.36) rotate(141.47) scale(1.14 2.07) skewX(25.03)" xlink:href="#radial-gradient-3"/>
    <radialGradient id="radial-gradient-40" cx="2600.85" cy="1555.67" fx="2600.85" fy="1555.67" r="69.26" gradientTransform="translate(5412.74 787.97) rotate(135.67) scale(1.1 2.14) skewX(12.01)" xlink:href="#radial-gradient-3"/>
    <radialGradient id="radial-gradient-41" cx="-1205.85" cy="115.07" fx="-1205.85" fy="115.07" r="596.94" gradientTransform="translate(-462.15 -55.18) rotate(-140.89)" gradientUnits="userSpaceOnUse">
      <stop offset="0" stop-color="#343434"/>
      <stop offset=".24" stop-color="#313131"/>
      <stop offset=".36" stop-color="#292929"/>
      <stop offset=".46" stop-color="#1c1c1c"/>
      <stop offset=".52" stop-color="#111"/>
    </radialGradient>
    <radialGradient id="radial-gradient-42" cx="323.67" cy="421.03" fx="323.67" fy="421.03" r="320.04" gradientTransform="translate(-456.51 293.21) rotate(106.71) scale(.89 -1.62) skewX(-25.92)" xlink:href="#radial-gradient-3"/>
    <radialGradient id="radial-gradient-43" cx="125.74" cy="484.25" fx="125.74" fy="484.25" r="81.47" gradientTransform="translate(-456.51 293.21) rotate(106.71) scale(.89 -1.62) skewX(-25.92)" xlink:href="#radial-gradient-3"/>
    <radialGradient id="radial-gradient-44" cx="963.79" cy="959.52" fx="963.79" fy="959.52" r="298.84" gradientTransform="translate(-1083.59 -238.38) rotate(106.71) scale(1 -1.4) skewX(-20.46)" xlink:href="#radial-gradient-3"/>
    <radialGradient id="radial-gradient-45" cx="963.79" cy="959.52" fx="963.79" fy="959.52" r="298.84" gradientTransform="translate(-1083.59 -238.38) rotate(106.71) scale(1 -1.4) skewX(-20.46)" xlink:href="#radial-gradient-3"/>
    <radialGradient id="radial-gradient-46" cx="963.79" cy="959.52" fx="963.79" fy="959.52" r="298.84" gradientTransform="translate(-1083.59 -238.38) rotate(106.71) scale(1 -1.4) skewX(-20.46)" xlink:href="#radial-gradient-3"/>
    <radialGradient id="radial-gradient-47" cx="963.79" cy="959.52" fx="963.79" fy="959.52" r="298.84" gradientTransform="translate(-1083.59 -238.38) rotate(106.71) scale(1 -1.4) skewX(-20.46)" xlink:href="#radial-gradient-3"/>
    <radialGradient id="radial-gradient-48" cx="963.79" cy="959.52" fx="963.79" fy="959.52" r="298.84" gradientTransform="translate(-1083.59 -238.38) rotate(106.71) scale(1 -1.4) skewX(-20.46)" xlink:href="#radial-gradient-3"/>
    <radialGradient id="radial-gradient-49" cx="570.23" cy="1104.07" fx="570.23" fy="1104.07" r="91.19" gradientTransform="translate(-1083.59 -238.38) rotate(106.71) scale(1 -1.4) skewX(-20.46)" xlink:href="#radial-gradient-3"/>
    <radialGradient id="radial-gradient-50" cx="3329.74" cy="2064.68" fx="3329.74" fy="2064.68" r="91.18" gradientTransform="translate(1600 -3751.42) rotate(148.4) scale(.96 -1.47) skewX(11.15)" xlink:href="#radial-gradient-3"/>
    <radialGradient id="radial-gradient-51" cx="3373.28" cy="2082.09" fx="3373.28" fy="2082.09" r="38.7" gradientTransform="translate(-4049.07 -1406) rotate(68.09) scale(.96 -1.47) skewX(11.15)" xlink:href="#radial-gradient-3"/>
    <radialGradient id="radial-gradient-52" cx="3445.08" cy="2120.31" fx="3445.08" fy="2120.31" r="38.7" gradientTransform="translate(-4049.07 -1406) rotate(68.09) scale(.96 -1.47) skewX(11.15)" xlink:href="#radial-gradient-3"/>
    <radialGradient id="radial-gradient-53" cx="3505.61" cy="2162.74" fx="3505.61" fy="2162.74" r="62.11" gradientTransform="translate(1888.75 -3948.19) rotate(148.84) scale(.96 -1.46) skewX(12.72)" xlink:href="#radial-gradient-3"/>
    <radialGradient id="radial-gradient-54" cx="946.23" cy="1256.27" fx="946.23" fy="1256.27" r="55.95" gradientTransform="translate(-1378.68 -427.6) rotate(102.35) scale(.98 -1.42) skewX(-18.01)" xlink:href="#radial-gradient-3"/>
    <radialGradient id="radial-gradient-55" cx="941.73" cy="1308.12" fx="941.73" fy="1308.12" r="55.95" gradientTransform="translate(-1378.68 -427.6) rotate(102.35) scale(.98 -1.42) skewX(-18.01)" xlink:href="#radial-gradient-3"/>
    <radialGradient id="radial-gradient-56" cx="962.05" cy="1304.86" fx="962.05" fy="1304.86" r="34.85" gradientTransform="translate(-1378.68 -427.6) rotate(102.35) scale(.98 -1.42) skewX(-18.01)" xlink:href="#radial-gradient-3"/>
    <radialGradient id="radial-gradient-57" cx="915.14" cy="1239.36" fx="915.14" fy="1239.36" r="34.85" gradientTransform="translate(-1378.68 -427.6) rotate(102.35) scale(.98 -1.42) skewX(-18.01)" xlink:href="#radial-gradient-3"/>
    <radialGradient id="radial-gradient-58" cx="863.23" cy="1310.16" fx="863.23" fy="1310.16" r="34.85" gradientTransform="translate(-1378.68 -427.6) rotate(102.35) scale(.98 -1.42) skewX(-18.01)" xlink:href="#radial-gradient-3"/>
    <radialGradient id="radial-gradient-59" cx="740.36" cy="1040.82" fx="740.36" fy="1040.82" r="91.19" gradientTransform="translate(-1083.59 -238.38) rotate(106.71) scale(1 -1.4) skewX(-20.46)" xlink:href="#radial-gradient-3"/>
    <radialGradient id="radial-gradient-60" cx="1029.73" cy="1237.88" fx="1029.73" fy="1237.88" r="34.85" gradientTransform="translate(-1378.68 -427.6) rotate(102.35) scale(.98 -1.42) skewX(-18.01)" xlink:href="#radial-gradient-3"/>
    <radialGradient id="radial-gradient-61" cx="863.37" cy="1255.37" fx="863.37" fy="1255.37" r="34.85" gradientTransform="translate(-1378.68 -427.6) rotate(102.35) scale(.98 -1.42) skewX(-18.01)" xlink:href="#radial-gradient-3"/>
  </defs>
  <g class="cls-62">
    <g id="Layer_2" data-name="Layer 2">
      <g id="Capa_1" data-name="Capa 1">
        <g>
          <path class="cls-39" d="M64.94,330.8C114.79,142.67,302.82-1.3,483.42,0c145.1,1.05,260.46,5.41,398.96,46.73,241.58,72.07,332.25,341.54,344.77,578.27,2.02,38.11-16.63,157.17-60.71,239.17-75.58,140.61-154.39,269.52-310.62,296.16-168.28,28.69-341.11,68.15-506.82-12.1C164.75,1059.02,68.25,872.3,12.74,702.2c-38.4-117.68,19.12-246.61,52.19-371.4Z"/>
          <path class="cls-43" d="M202.6,252.43C283.45,101.09,473.91,15.6,628.6,53.26c124.29,30.26,222.39,57.34,332.87,120.81,192.71,110.72,215.98,360.27,178.83,565.93-5.98,33.11-46.07,131.49-100.48,192.94-93.3,105.35-187,200.02-326.44,191.27-150.2-9.43-306.47-10.54-432.43-112.92-140.04-113.83-185.07-293.58-198.28-450.75-9.14-108.75,66.3-207.73,119.93-308.12Z"/>
          <g>
            <path class="cls-46" d="M1091.49,699.38c-7.35,.55-16.32-18.51-20.02-42.57-3.71-24.06-.75-44.02,6.6-44.57,7.35-.55,16.32,18.51,20.02,42.57,3.71,24.06,.75,44.02-6.6,44.57Zm-108.14-433.39c-12.49-20.27-27.23-32.57-32.93-27.48-5.69,5.09-.19,25.64,12.3,45.91,12.49,20.27,27.23,32.57,32.93,27.48,5.69-5.09,.19-25.64-12.3-45.91Zm8.94,77.65c-8.69-14.68-19.09-23.74-23.23-20.24-4.15,3.51-.47,18.25,8.22,32.94,8.69,14.68,19.09,23.74,23.23,20.24,4.15-3.51,.47-18.25-8.22-32.94Zm44.34,26.21c-6.17-11.21-13.76-18.31-16.95-15.85-3.19,2.45-.77,13.52,5.4,24.73,6.17,11.21,13.76,18.31,16.95,15.85,3.19-2.45,.77-13.52-5.4-24.73Zm64.03,396.34c.77-12.57-1.83-23.61-5.82-24.65-3.98-1.05-7.84,8.29-8.61,20.86s1.83,23.61,5.82,24.65c3.98,1.05,7.84-8.29,8.61-20.86Zm-29.7-50.62c-2.62-14.54-8.32-25.9-12.74-25.38-4.42,.52-5.89,12.73-3.27,27.27,2.62,14.54,8.32,25.9,12.74,25.38,4.42-.52,5.89-12.73,3.27-27.27Z"/>
            <path class="cls-44" d="M965.05,291.06c-5.72-9.28-9.96-18.61-12.35-26.49,2.46,6.26,5.85,13.07,10.03,19.85,12.49,20.27,27.23,32.57,32.93,27.48,3.09-2.76,2.88-10.07,.05-19.42,4.88,12.44,6.06,22.67,2.27,26.05-5.69,5.09-20.44-7.21-32.93-27.48Zm35.7,71.55c1.94,6.78,2.03,12.05-.24,13.97-4.15,3.51-14.55-5.55-23.23-20.24-2.48-4.2-4.54-8.39-6.14-12.33,1.62,5.64,4.51,12.3,8.46,18.97,8.69,14.68,19.09,23.74,23.23,20.24,2.96-2.5,1.91-10.75-2.08-20.61Zm97.34,292.2c3.71,24.06,.75,44.02-6.6,44.57-4.33,.33-9.22-6.16-13.27-16.47,4.38,14.07,10.39,23.5,15.59,23.11,7.35-.55,10.31-20.51,6.6-44.57-1.52-9.88-3.93-18.92-6.75-26.1,1.81,5.82,3.35,12.42,4.43,19.46Zm4.89,118.02c.59-9.58-.79-18.26-3.24-22.31,.9,4.33,1.28,9.83,.92,15.67-.77,12.57-4.63,21.91-8.61,20.86-.95-.25-1.81-1.08-2.58-2.34,1.04,4.98,2.76,8.42,4.9,8.98,3.98,1.05,7.84-8.29,8.61-20.86Zm-29.7-50.62c-1.06-5.87-2.62-11.2-4.39-15.46,.8,2.74,1.51,5.7,2.07,8.82,2.62,14.54,1.15,26.75-3.27,27.27-2.64,.31-5.73-3.63-8.35-9.92,2.94,10.03,7.2,16.97,10.67,16.56,4.42-.52,5.89-12.73,3.27-27.27Zm-30.93-338.64c1.48,5.43,1.49,9.63-.33,11.02-3.19,2.45-10.78-4.65-16.95-15.85-1.32-2.39-2.45-4.77-3.41-7.07,1.12,4.1,3.07,8.89,5.73,13.71,6.17,11.21,13.76,18.31,16.95,15.85,2.51-1.93,1.53-9.2-1.99-17.66Z"/>
            <g>
              <path class="cls-60" d="M1062.39,738.83c.47-4.85,.16-11.19-1.08-18.08-1.63-9.06-4.46-16.89-7.43-21.38-.47,4.85-.16,11.19,1.08,18.08,1.63,9.06,4.46,16.89,7.44,21.38Z"/>
              <path class="cls-61" d="M1087.65,698.04c2.76-7.87,3.24-22.05,.78-38.05-3.08-19.99-9.79-36.52-16.19-41.23-2.76,7.87-3.24,22.05-.78,38.05,3.08,19.99,9.79,36.52,16.19,41.23Z"/>
              <path class="cls-54" d="M1088.26,749.98c-1,3.43-1.73,7.7-2.02,12.43-.55,8.92,.61,17.04,2.75,21.4,1-3.43,1.73-7.7,2.02-12.42,.55-8.92-.61-17.04-2.75-21.4Z"/>
              <path class="cls-59" d="M948.28,243.68c-.9,8.61,4.6,24.77,14.45,40.75,8.64,14.02,18.36,24.23,25.41,27.5,.9-8.61-4.6-24.77-14.45-40.75-8.64-14.02-18.36-24.23-25.41-27.5Z"/>
              <path class="cls-48" d="M1026.97,375.03c-2.55-4.63-5.34-8.54-7.96-11.39,1.03,4.38,3.11,9.71,6.07,15.08,2.55,4.63,5.34,8.54,7.96,11.39-1.03-4.38-3.11-9.71-6.07-15.08Z"/>
              <path class="cls-49" d="M967.44,330.39c.54,6.5,4.08,16.23,9.83,25.95,5,8.46,10.57,15.03,15.19,18.43-.54-6.5-4.08-16.23-9.83-25.95-5-8.46-10.57-15.03-15.19-18.43Z"/>
            </g>
            <path class="cls-27" d="M961.17,307.38c-2.33,1.79-7.93-3.49-12.5-11.8-4.57-8.31-6.39-16.49-4.06-18.28,2.33-1.79,7.93,3.49,12.5,11.8,4.57,8.31,6.39,16.49,4.06,18.28Z"/>
            <path class="cls-18" d="M1100.55,626.64c-2.86,.25-6.43-7.24-7.97-16.74-1.54-9.5-.47-17.41,2.39-17.66,2.86-.25,6.43,7.24,7.97,16.74,1.54,9.5,.47,17.41-2.39,17.66Z"/>
            <path class="cls-16" d="M1098.02,835.13c-2.86-1.23-3.92-9.49-2.37-18.47s5.13-15.26,7.99-14.03c2.86,1.23,3.92,9.49,2.37,18.47-1.55,8.97-5.13,15.26-7.99,14.03Z"/>
            <path class="cls-34" d="M1103.69,649.41c-1.21,.11-2.73-3.07-3.38-7.11-.65-4.03-.2-7.39,1.01-7.5,1.21-.11,2.73,3.07,3.38,7.11,.65,4.03,.2,7.39-1.01,7.5Z"/>
            <path class="cls-11" d="M1074.78,698.29c-1.21,.11-2.73-3.07-3.38-7.11-.65-4.03-.2-7.39,1.01-7.5,1.21-.11,2.73,3.07,3.38,7.11s.2,7.39-1.01,7.5Z"/>
            <path class="cls-19" d="M1110.98,728.26c-1.21,.11-2.73-3.07-3.38-7.11-.65-4.03-.2-7.39,1.01-7.5,1.21-.11,2.73,3.07,3.38,7.11,.65,4.03,.2,7.39-1.01,7.5Z"/>
            <path class="cls-17" d="M1078.83,770.58c-1.24-.27-2.14-3.71-2.02-7.69s1.22-6.99,2.46-6.73c1.24,.27,2.14,3.71,2.02,7.69-.12,3.98-1.22,6.99-2.46,6.73Z"/>
            <path class="cls-33" d="M1107.81,753.89c-1.98-.14-3.92-5.51-4.31-11.99-.4-6.48,.89-11.61,2.87-11.46,1.98,.14,3.92,5.51,4.31,11.99,.4,6.48-.89,11.61-2.87,11.46Z"/>
            <ellipse class="cls-2" cx="1062.64" cy="630.92" rx="3.54" ry="11.86" transform="translate(-83.24 168.09) rotate(-8.7)"/>
            <path class="cls-32" d="M1018.38,383.73c-1.49,.99-4.8-2.45-7.4-7.69-2.6-5.24-3.51-10.3-2.02-11.29,1.49-.99,4.8,2.45,7.4,7.69,2.6,5.24,3.51,10.3,2.02,11.29Z"/>
            <path class="cls-3" d="M985.76,386.49c-1.49,.99-4.8-2.45-7.4-7.69-2.6-5.24-3.51-10.3-2.02-11.29,1.49-.99,4.8,2.45,7.4,7.69,2.6,5.24,3.51,10.3,2.02,11.29Z"/>
            <path class="cls-6" d="M996.45,395.81c-.93,.62-2.99-1.53-4.61-4.79-1.62-3.27-2.18-6.41-1.26-7.03,.93-.62,2.99,1.53,4.61,4.79,1.62,3.27,2.18,6.41,1.26,7.03Z"/>
            <path class="cls-36" d="M1028.11,350.61c-.93,.62-2.99-1.53-4.61-4.79-1.62-3.27-2.18-6.41-1.26-7.03,.93-.62,2.99,1.53,4.61,4.79,1.62,3.27,2.18,6.41,1.26,7.03Z"/>
            <path class="cls-22" d="M975.24,318.09c-.93,.62-2.99-1.53-4.61-4.79-1.62-3.27-2.18-6.41-1.26-7.03,.93-.62,2.99,1.53,4.61,4.79,1.62,3.27,2.18,6.41,1.26,7.03Z"/>
            <path class="cls-31" d="M1035.76,430.58c-2.33,1.79-7.93-3.49-12.5-11.8-4.57-8.31-6.39-16.49-4.06-18.28,2.33-1.79,7.93,3.49,12.5,11.8,4.57,8.31,6.39,16.49,4.06,18.28Z"/>
            <path class="cls-14" d="M1049.83,441.29c-.93,.62-2.99-1.53-4.61-4.79-1.62-3.27-2.18-6.41-1.26-7.03,.93-.62,2.99,1.53,4.61,4.79,1.62,3.27,2.18,6.41,1.26,7.03Z"/>
            <path class="cls-24" d="M1008.88,311.51c-.93,.62-2.99-1.53-4.61-4.79-1.62-3.27-2.18-6.41-1.26-7.03,.93-.62,2.99,1.53,4.61,4.79,1.62,3.27,2.18,6.41,1.26,7.03Z"/>
          </g>
          <g>
            <path class="cls-47" d="M750.42,758.41c-25.11-11.5-42.22-52.74-38.23-92.13,4-39.38,27.59-61.99,52.7-50.5,25.11,11.5,42.22,52.74,38.23,92.13-4,39.38-27.59,61.99-52.7,50.5Zm-14.82,107.49c11.19-16.06,9.98-35.63-2.7-43.71-12.68-8.09-32.04-1.63-43.23,14.43-11.19,16.06-9.98,35.63,2.7,43.71,12.68,8.09,32.04,1.63,43.23-14.43Zm-65.27-119.38c1.15-24.42-10.27-49.62-25.5-56.27-15.23-6.66-28.51,7.75-29.65,32.17-1.15,24.42,10.27,49.62,25.5,56.27,15.23,6.66,28.51-7.75,29.65-32.17Z"/>
            <path class="cls-41" d="M803.11,707.92c-4,39.38-27.59,61.99-52.7,50.5-14.8-6.77-26.81-23.88-33.37-44.85,5.12,26.72,18.87,49.75,36.63,57.88,25.11,11.5,48.7-11.11,52.7-50.5,1.64-16.18-.28-32.66-4.86-47.27,2.12,11.05,2.77,22.72,1.6,34.25Zm-64.26,171.02c8.53-12.24,9.84-26.51,4.37-36.19,.06,7.48-2.42,15.69-7.63,23.16-11.19,16.06-30.55,22.52-43.23,14.43-3.02-1.92-5.36-4.51-7.07-7.53,.07,8.61,3.54,16.23,10.33,20.56,12.68,8.09,32.04,1.63,43.23-14.43Zm-65.27-119.38c.46-9.86-1.15-19.82-4.2-28.66,.82,5.12,1.19,10.39,.94,15.63-1.15,24.42-14.42,38.83-29.65,32.17-9.08-3.97-16.78-14.55-21.3-27.61,3.02,18.74,12.6,35.41,24.56,40.64,15.23,6.66,28.51-7.75,29.65-32.17Z"/>
            <g>
              <path class="cls-53" d="M625.56,764.33c4.91-5.9,8.19-15.18,8.74-26.75,.72-15.23-3.45-30.75-10.39-41.9-4.91,5.9-8.2,15.18-8.74,26.75-.72,15.23,3.45,30.75,10.39,41.9Z"/>
              <path class="cls-50" d="M738.43,750.17c14.67-6.26,26-25.01,28.65-51.2,3.32-32.72-7.94-66.72-26.24-83.88-14.67,6.26-26,25.01-28.65,51.2-3.32,32.72,7.94,66.72,26.24,83.88Z"/>
              <path class="cls-51" d="M704.96,822.85c-5.73,3.06-11.09,7.74-15.3,13.78-7.94,11.39-9.61,24.53-5.4,34.11,5.73-3.06,11.09-7.74,15.3-13.78,7.94-11.39,9.61-24.53,5.4-34.11Z"/>
            </g>
            <path class="cls-13" d="M830.67,673.15c-9.79-4.42-16.67-20.71-15.36-36.39,1.31-15.68,10.31-24.81,20.11-20.39,9.79,4.42,16.67,20.71,15.36,36.39-1.31,15.68-10.31,24.81-20.11,20.39Z"/>
            <path class="cls-26" d="M679.53,956.62c-8.78-6.46-6.69-19.63,4.67-29.43,11.36-9.8,27.69-12.5,36.47-6.04,8.78,6.46,6.69,19.63-4.67,29.43-11.36,9.79-27.69,12.5-36.47,6.04Z"/>
            <path class="cls-20" d="M825.65,709.8c-4.16-1.88-7.08-8.79-6.52-15.45,.56-6.66,4.38-10.53,8.54-8.66,4.16,1.88,7.08,8.79,6.52,15.45-.56,6.66-4.38,10.53-8.54,8.66Z"/>
            <path class="cls-4" d="M694.96,729.05c-4.16-1.88-7.08-8.79-6.52-15.45,.56-6.66,4.38-10.53,8.53-8.66,4.16,1.88,7.08,8.79,6.52,15.45-.56,6.66-4.38,10.53-8.53,8.66Z"/>
            <path class="cls-5" d="M796.25,830.77c-4.16-1.88-7.08-8.79-6.52-15.45,.56-6.66,4.38-10.53,8.54-8.66,4.16,1.88,7.08,8.79,6.52,15.45-.56,6.66-4.38,10.53-8.54,8.66Z"/>
            <path class="cls-25" d="M659.15,835.56c-3.98-2.44-4.67-8.7-1.54-13.99,3.13-5.29,8.9-7.61,12.89-5.17,3.98,2.43,4.67,8.7,1.54,13.99-3.13,5.29-8.9,7.61-12.89,5.17Z"/>
            <path class="cls-10" d="M768.03,860.84c-6.57-3.51-9.4-14.13-6.31-23.73,3.09-9.6,10.92-14.54,17.49-11.04,6.57,3.51,9.4,14.13,6.31,23.73-3.09,9.6-10.92,14.54-17.49,11.04Z"/>
            <ellipse class="cls-38" cx="700.22" cy="615.84" rx="12.19" ry="19.89" transform="translate(-56.13 70.4) rotate(-5.53)"/>
          </g>
          <path class="cls-40" d="M208.2,266.83C287.02,119.28,472.72,35.93,623.54,72.65c121.18,29.5,192.23,34.21,298.53,98.48,86,52-51.48,70.08-187,73-32.37,.7-165-19-214.96-20.05-160.26-3.36-283.67,199.87-330.51,199.87s-33.67-59.25,18.61-157.12Z"/>
          <g>
            <path class="cls-52" d="M176.72,821.54c2.19-28.75,17.94-52.99,35.17-54.14,17.24-1.16,29.44,21.21,27.25,49.96-2.19,28.75-17.94,52.99-35.17,54.14-17.24,1.16-29.44-21.21-27.25-49.96Zm146.57-421.76c14.6,4.5,45.58-13.34,69.2-39.83,23.62-26.5,30.94-51.62,16.34-56.12-14.6-4.5-45.58,13.34-69.2,39.83-23.62,26.5-30.94,51.62-16.34,56.12Zm5.98,76.02c10.57,3.05,32.33-9.98,48.6-29.09,16.27-19.11,20.89-37.07,10.31-40.12-10.57-3.05-32.33,9.98-48.6,29.09-16.27,19.11-20.89,37.07-10.31,40.12Zm-91.72,30.97c8.07,2.06,23.81-8.01,35.17-22.48,11.36-14.47,14.02-27.88,5.96-29.94-8.07-2.06-23.81,8.01-35.17,22.48-11.36,14.47-14.02,27.88-5.96,29.94Zm33.33,409.19c10.42-.48,20.64-15.02,22.84-32.48,2.2-17.46-4.47-31.23-14.88-30.75-10.42,.48-20.64,15.02-22.84,32.48-2.2,17.46,4.47,31.23,14.88,30.75Z"/>
            <path class="cls-42" d="M319.67,408.03c-9.71-2.99-9.71-15.12-1.68-30.7-4.08,11.5-2.62,20.01,5.3,22.45,14.6,4.5,45.58-13.34,69.2-39.83,7.91-8.87,13.98-17.58,18.02-25.42-3.44,9.71-10.83,21.54-21.64,33.67-23.62,26.5-54.6,44.33-69.2,39.83Zm5.98,76.02c10.57,3.05,32.33-9.98,48.6-29.09,7.39-8.68,12.34-17.1,14.59-24.01-2.66,4.95-6.32,10.31-10.97,15.77-16.27,19.11-38.03,32.13-48.6,29.09-5.77-1.66-6.99-7.79-4.28-16.1-6.66,12.38-6.89,22.17,.66,24.35Zm-91.72,30.97c8.07,2.06,23.81-8.01,35.17-22.48,4.89-6.23,8.15-12.25,9.66-17.26-1.61,2.89-3.61,5.92-6.04,9.01-11.36,14.47-27.1,24.54-35.17,22.48-4.6-1.17-5.7-6.03-3.7-12.67-5.94,10.66-6.26,19.3,.08,20.92Z"/>
            <g>
              <path class="cls-55" d="M282.14,910.03c-2.39-5.49-3.36-12.91-2.32-21.18,1.37-10.89,5.86-20.64,11.57-26.55,2.39,5.49,3.36,12.91,2.32,21.18-1.37,10.89-5.86,20.64-11.58,26.55Z"/>
              <path class="cls-57" d="M212.53,869c-8.52-8.43-13.43-24.72-11.97-43.83,1.82-23.88,13-44.64,26.62-51.65,8.52,8.43,13.43,24.72,11.97,43.83-1.82,23.88-13,44.64-26.62,51.65Z"/>
              <path class="cls-58" d="M415.2,309.27c4.4,9.75-4.08,29.78-22.7,50.67-16.34,18.33-36.21,32.51-51.73,38.02-4.4-9.75,4.08-29.78,22.7-50.67,16.34-18.33,36.21-32.51,51.73-38.02Z"/>
              <path class="cls-45" d="M267.34,480.47c4.69-5.98,10.13-11.19,15.47-15.12-1.22,5.32-4.65,11.99-10.09,18.94-4.69,5.98-10.13,11.19-15.47,15.12,1.22-5.32,4.65-11.99,10.09-18.94Z"/>
              <path class="cls-56" d="M393.8,414.28c.47,7.65-5.15,19.77-15.93,32.43-9.37,11.01-20.56,19.97-30.38,25.03-.47-7.65,5.15-19.77,15.93-32.43,9.37-11.01,20.56-19.97,30.38-25.03Z"/>
            </g>
            <path class="cls-28" d="M402.24,386.13c5.9,1.5,17.5-5.97,25.91-16.7,8.41-10.73,10.44-20.64,4.55-22.14-5.9-1.5-17.5,5.97-25.91,16.7-8.41,10.73-10.44,20.64-4.55,22.14Z"/>
            <ellipse class="cls-15" cx="165.38" cy="768.96" rx="20.79" ry="11.97" transform="translate(-620.45 802.56) rotate(-80.31)"/>
            <path class="cls-9" d="M162.26,816.65c2.85-.17,5.52-4.22,5.97-9.05,.44-4.83-1.51-8.6-4.36-8.43-2.85,.17-5.52,4.22-5.97,9.05-.44,4.83,1.51,8.6,4.36,8.43Z"/>
            <path class="cls-37" d="M242.52,866.15c2.85-.17,5.52-4.22,5.97-9.05,.44-4.83-1.51-8.6-4.36-8.43-2.85,.17-5.52,4.22-5.97,9.05s1.51,8.6,4.36,8.43Z"/>
            <ellipse class="cls-21" cx="252.75" cy="785.23" rx="14.08" ry="8.2" transform="translate(-558.28 935.95) rotate(-82.69)"/>
            <path class="cls-7" d="M289.64,488.43c3.72,.79,10.51-4.01,15.15-10.71,4.65-6.7,5.4-12.77,1.68-13.55-3.72-.79-10.51,4.01-15.15,10.71-4.65,6.7-5.4,12.77-1.68,13.55Z"/>
            <path class="cls-29" d="M366.21,483.66c3.72,.79,10.51-4.01,15.15-10.71,4.65-6.7,5.4-12.77,1.68-13.55-3.72-.79-10.51,4.01-15.15,10.71-4.65,6.7-5.4,12.77-1.68,13.55Z"/>
            <path class="cls-35" d="M343.84,497.06c2.32,.49,6.54-2.5,9.44-6.67,2.9-4.17,3.36-7.95,1.05-8.44-2.32-.49-6.54,2.5-9.44,6.67s-3.36,7.95-1.05,8.44Z"/>
            <path class="cls-12" d="M258.19,452.49c2.32,.49,6.54-2.5,9.44-6.67,2.9-4.17,3.36-7.95,1.05-8.44-2.32-.49-6.54,2.5-9.44,6.67-2.9,4.17-3.36,7.95-1.05,8.44Z"/>
            <path class="cls-30" d="M372.39,401.96c2.32,.49,6.54-2.5,9.44-6.67,2.9-4.17,3.36-7.95,1.05-8.44-2.32-.49-6.54,2.5-9.44,6.67-2.9,4.17-3.36,7.95-1.05,8.44Z"/>
            <path class="cls-1" d="M261.75,546.88c5.9,1.5,17.5-5.97,25.91-16.7,8.41-10.73,10.44-20.64,4.55-22.14-5.9-1.5-17.5,5.97-25.91,16.7-8.41,10.73-10.44,20.64-4.55,22.14Z"/>
            <path class="cls-8" d="M231.9,562.71c2.32,.49,6.54-2.5,9.44-6.67,2.9-4.17,3.36-7.95,1.05-8.44-2.32-.49-6.54,2.5-9.44,6.67-2.9,4.17-3.36,7.95-1.05,8.44Z"/>
            <path class="cls-23" d="M292.45,402.55c2.32,.49,6.54-2.5,9.44-6.67,2.9-4.17,3.36-7.95,1.05-8.44-2.32-.49-6.54,2.5-9.44,6.67-2.9,4.17-3.36,7.95-1.05,8.44Z"/>
          </g>
        </g>
      </g>
    </g>
  </g>
</svg>