<?xml version="1.0" standalone="no"?>
<!DOCTYPE svg PUBLIC "-//W3C//DTD SVG 20010904//EN"
 "http://www.w3.org/TR/2001/REC-SVG-20010904/DTD/svg10.dtd">
<svg version="1.0" xmlns="http://www.w3.org/2000/svg"
 width="2048.000000pt" height="779.000000pt" viewBox="0 0 2048.000000 779.000000"
 preserveAspectRatio="xMidYMid meet">

<g transform="translate(0.000000,779.000000) scale(0.100000,-0.100000)"
fill="#000000" stroke="none">
<path d="M0 3895 l0 -3895 10240 0 10240 0 0 3895 0 3895 -10240 0 -10240 0 0
-3895z m16903 3718 c3 -17 -2 -32 -14 -44 -37 -37 -89 -13 -89 41 0 27 3 31
18 25 26 -11 47 -11 49 0 1 6 -10 9 -25 8 -25 -2 -26 -1 -8 12 16 12 22 12 41
-1 13 -8 25 -26 28 -41z m-16773 -18 c10 -12 10 -18 0 -30 -16 -19 -39 -19
-46 0 -6 15 11 45 26 45 4 0 13 -7 20 -15z m17210 -590 c17 -20 5 -45 -20 -45
-11 0 -23 7 -26 15 -6 15 11 45 26 45 4 0 13 -7 20 -15z m-16880 -281 c11 -12
10 -18 -3 -32 -16 -15 -18 -15 -34 0 -13 14 -14 20 -3 32 7 9 16 16 20 16 4 0
13 -7 20 -16z m1858 9 c-10 -2 -18 -13 -18 -24 0 -14 7 -19 30 -19 17 0 30 5
31 13 0 6 4 3 8 -8 12 -29 5 -35 -39 -35 -45 0 -49 4 -43 48 4 25 10 32 27 31
17 -1 17 -2 4 -6z m15072 -3 c0 -5 -7 -10 -15 -10 -8 0 -15 5 -15 10 0 6 7 10
15 10 8 0 15 -4 15 -10z m-15036 -15 c-7 -17 -20 -20 -29 -6 -3 5 3 12 12 14
10 3 19 5 20 6 1 0 0 -6 -3 -14z m14846 -25 c24 -24 25 -47 3 -72 -18 -20 -63
-24 -81 -6 -17 17 -15 64 4 82 21 22 50 20 74 -4z m-6735 -98 c112 -30 267
-110 347 -179 135 -116 237 -275 277 -434 21 -81 17 -107 -20 -127 -22 -13
-58 -4 -367 82 -188 53 -358 96 -378 96 -73 0 -136 -47 -164 -123 -9 -24 -26
-48 -42 -56 -25 -14 -41 -11 -249 47 -122 34 -230 69 -240 78 -18 16 -19 37
-19 290 0 174 4 282 11 297 6 13 23 31 37 40 24 16 60 17 377 14 318 -4 357
-6 430 -25z m7174 -96 c15 -18 3 -46 -20 -46 -25 0 -35 26 -19 45 15 19 24 19
39 1z m-17059 -16 c0 -5 -7 -10 -15 -10 -8 0 -15 5 -15 10 0 6 7 10 15 10 8 0
15 -4 15 -10z m18588 -22 c5 -38 -28 -54 -58 -30 -20 16 -21 21 -11 41 18 33
65 26 69 -11z m-18746 -75 c36 -33 13 -93 -37 -93 -49 0 -72 55 -38 92 20 22
51 23 75 1z m473 -78 c0 -23 -34 -33 -45 -14 -13 20 1 40 24 37 13 -2 21 -10
21 -23z m1265 -41 c0 -14 -21 -19 -33 -7 -9 9 13 34 24 27 5 -3 9 -12 9 -20z
m252 -171 c23 -28 28 -63 13 -93 -24 -47 -81 -54 -120 -15 -51 50 -19 125 54
125 24 0 44 -7 53 -17z m-525 -29 c8 -22 -17 -45 -46 -42 -32 4 -42 45 -16 65
20 14 52 2 62 -23z m16953 16 c0 -11 -7 -20 -15 -20 -8 0 -15 9 -15 20 0 11 7
20 15 20 8 0 15 -9 15 -20z m-322 -112 c5 -38 -28 -54 -58 -30 -20 16 -21 21
-11 41 18 33 65 26 69 -11z m-7673 -363 c202 -55 235 -71 235 -114 0 -34 -101
-219 -154 -283 -149 -180 -367 -295 -593 -315 l-72 -6 60 62 c80 81 103 136
189 431 69 240 87 280 124 280 6 0 101 -25 211 -55z m-10401 -501 c11 -28 6
-120 -6 -132 -7 -7 -24 -12 -38 -12 -14 0 -31 5 -38 12 -13 13 -17 130 -5 141
14 14 81 7 87 -9z m1830 -270 c11 -28 7 -43 -15 -54 -16 -9 -25 -8 -40 6 -10
9 -19 22 -19 29 0 32 63 49 74 19z m15456 -144 c15 -28 -22 -65 -50 -50 -19
10 -27 49 -13 63 14 14 53 6 63 -13z m814 -12 c23 -38 -36 -77 -64 -43 -10 12
-10 21 -1 41 13 29 47 30 65 2z m-17060 -57 c25 -28 5 -63 -32 -59 -34 4 -44
45 -16 65 23 17 28 17 48 -6z m8716 -211 l0 -230 -45 0 -45 0 0 230 0 230 45
0 45 0 0 -230z m-1399 172 c146 -75 145 -298 0 -374 -49 -26 -62 -28 -162 -28
l-109 0 0 215 0 215 109 0 c99 0 113 -2 162 -28z m3374 6 c-4 -13 -19 -48 -34
-78 -20 -42 -31 -55 -49 -56 -12 -1 -24 2 -27 5 -2 4 4 39 12 79 l16 72 44 0
c41 0 44 -2 38 -22z m-10339 1 c10 -17 -13 -36 -27 -22 -12 12 -4 33 11 33 5
0 12 -5 16 -11z m16222 -31 c-7 -19 -38 -22 -38 -4 0 10 9 16 21 16 12 0 19
-5 17 -12z m-8853 -48 c57 -28 102 -112 89 -167 -6 -23 -9 -23 -129 -23 -119
0 -123 -1 -118 -20 13 -49 92 -66 131 -30 27 26 102 28 102 4 0 -9 -17 -33
-38 -54 -69 -69 -182 -64 -247 13 -75 87 -51 227 48 276 53 26 109 27 162 1z
m736 9 c70 -24 115 -93 107 -164 l-3 -30 -122 -3 c-131 -3 -140 -7 -101 -49
28 -30 87 -32 113 -3 13 14 31 20 62 20 23 0 43 -3 43 -7 0 -5 -9 -23 -20 -41
-24 -38 -89 -72 -140 -72 -50 0 -113 32 -141 71 -20 29 -24 46 -24 111 0 91
16 120 85 156 49 24 90 28 141 11z m561 1 c46 -13 105 -77 114 -125 16 -88
-24 -172 -100 -206 -55 -25 -102 -24 -156 4 -52 26 -78 59 -90 113 -20 86 15
164 90 202 48 24 85 27 142 12z m442 -4 c86 -36 122 -162 74 -256 -43 -84
-149 -113 -220 -60 l-28 21 0 -106 0 -106 -42 3 -43 3 -3 253 -2 252 45 0 c39
0 45 -3 45 -22 0 -20 1 -20 18 -5 41 37 101 46 156 23z m391 -6 c53 -25 85
-80 85 -144 l0 -46 -125 0 c-80 0 -125 -4 -125 -10 0 -6 11 -22 25 -35 31 -31
84 -34 110 -5 22 25 105 29 105 6 0 -26 -50 -74 -95 -91 -127 -49 -250 54
-231 194 17 122 138 186 251 131z m345 -24 c0 -42 -1 -44 -35 -50 -59 -11 -65
-24 -65 -147 l0 -109 -45 0 -45 0 0 170 0 170 45 0 c40 0 45 -3 45 -22 0 -20
1 -20 13 -5 12 16 51 35 75 36 8 1 12 -14 12 -43z m245 34 c36 -14 75 -58 75
-86 0 -20 -5 -24 -33 -24 -23 0 -41 8 -57 25 -26 27 -57 32 -84 12 -30 -22 -8
-44 65 -67 38 -11 79 -30 89 -40 42 -42 33 -103 -23 -144 -62 -46 -195 -16
-225 49 -18 40 -15 45 28 45 28 0 46 -7 64 -25 28 -28 53 -32 82 -11 30 23 7
46 -71 71 -38 13 -77 33 -87 45 -22 28 -23 78 -2 109 31 44 118 64 179 41z
m-2475 -102 c54 -173 47 -170 94 -28 l43 125 48 3 c42 3 47 1 41 -15 -4 -10
-33 -87 -64 -171 l-57 -153 -55 3 -55 3 -33 90 c-19 50 -47 125 -62 168 l-29
77 48 0 48 0 33 -102z m-7657 -89 c-54 -16 -40 -37 32 -51 35 -6 33 -7 -12 -3
-55 4 -71 -9 -30 -25 l22 -9 -24 0 c-17 -1 -21 -5 -17 -17 3 -8 2 -13 -2 -10
-5 3 -8 28 -8 56 1 53 14 70 51 69 12 -1 8 -4 -12 -10z m70 4 c-7 -2 -19 -2
-25 0 -7 3 -2 5 12 5 14 0 19 -2 13 -5z m16177 -43 c17 -32 11 -78 -12 -100
-60 -56 -152 16 -122 95 18 45 111 48 134 5z m-16134 1 c0 -11 -5 -17 -13 -14
-10 4 -11 9 -2 19 15 18 15 18 15 -5z m-2 -47 c3 -8 2 -12 -4 -9 -6 3 -10 10
-10 16 0 14 7 11 14 -7z m-24 2 c0 -2 -7 -7 -16 -10 -8 -3 -12 -2 -9 4 6 10
25 14 25 6z m-43 -12 c-3 -3 -12 -4 -19 -1 -8 3 -5 6 6 6 11 1 17 -2 13 -5z
m53 -24 c-8 -5 -24 -9 -35 -9 -16 1 -16 2 5 9 35 11 48 11 30 0z m-77 -7 c-7
-2 -19 -2 -25 0 -7 3 -2 5 12 5 14 0 19 -2 13 -5z m8638 -243 c22 -12 26 -59
7 -78 -21 -21 -66 -14 -84 13 -15 23 -15 27 0 50 17 26 45 32 77 15z m-970
-79 c22 -21 39 -48 39 -60 0 -18 -6 -21 -41 -21 -32 0 -47 6 -65 25 -37 40
-104 27 -104 -19 0 -32 24 -50 102 -75 81 -27 118 -64 118 -119 0 -78 -64
-132 -157 -132 -77 0 -139 42 -158 108 -6 21 -3 22 43 22 41 0 51 -3 55 -20
11 -44 95 -51 117 -10 23 43 -5 68 -112 100 -79 24 -116 84 -97 155 16 56 68
85 152 85 67 0 71 -1 108 -39z m1549 -11 l0 -40 40 0 c39 0 40 -1 40 -34 0
-33 -2 -35 -37 -38 l-38 -3 -3 -75 c-4 -106 1 -120 43 -120 34 0 35 -1 35 -41
l0 -41 -56 4 c-43 4 -61 11 -82 31 -25 26 -27 34 -30 137 -4 100 -6 110 -23
110 -15 0 -19 7 -19 35 0 28 4 35 20 35 17 0 20 7 20 40 l0 40 45 0 45 0 0
-40z m-1181 -60 c103 -52 119 -204 30 -285 -46 -41 -72 -49 -143 -43 -98 8
-150 68 -151 173 0 73 28 126 83 155 50 26 131 26 181 0z m379 6 c34 -18 68
-54 77 -83 6 -21 3 -23 -35 -23 -30 0 -51 7 -72 25 -45 38 -89 32 -113 -16
-31 -58 -13 -139 34 -159 32 -13 78 0 87 25 4 11 21 15 55 15 27 0 49 -4 49
-9 0 -21 -49 -78 -80 -93 -51 -26 -129 -23 -170 5 -54 36 -73 70 -78 136 -8
116 56 190 166 191 29 0 65 -6 80 -14z m232 -162 l0 -175 -42 3 -43 3 -3 173
-2 172 45 0 45 0 0 -176z m331 153 c40 -26 79 -98 79 -144 l0 -33 -125 0
c-117 0 -125 -1 -125 -19 0 -24 45 -61 75 -61 12 0 34 9 48 20 17 14 40 20 72
20 l47 0 -19 -32 c-45 -78 -154 -103 -237 -55 -106 60 -107 244 -2 308 46 28
142 26 187 -4z m482 -94 c23 -62 44 -110 48 -105 4 4 25 54 47 112 l39 105 46
3 c26 2 47 1 47 -2 0 -2 -47 -116 -105 -253 l-104 -248 -46 -3 c-25 -2 -45 1
-45 6 0 5 16 44 35 86 l35 77 -54 132 c-30 73 -62 149 -71 170 l-16 38 52 -3
51 -3 41 -112z m-10035 -669 c21 -14 33 -52 12 -39 -5 3 -10 1 -10 -5 0 -6 -5
-8 -12 -4 -7 4 -8 3 -4 -5 5 -8 0 -10 -20 -7 -26 5 -26 4 -11 -11 15 -15 18
-15 37 2 24 22 38 14 15 -9 -21 -21 -44 -20 -67 1 -25 22 -23 59 4 77 12 9 25
16 28 16 3 0 16 -7 28 -16z m8192 -879 c40 -20 50 -43 50 -110 0 -49 -4 -60
-29 -86 -27 -26 -36 -29 -98 -29 l-68 0 0 120 0 120 58 0 c32 0 71 -7 87 -15z
m275 5 c3 -5 -26 -10 -72 -12 l-78 -3 -3 -37 -3 -37 73 -3 c40 -2 73 -7 73
-13 0 -5 -33 -11 -72 -13 l-73 -3 0 -44 0 -45 80 0 c47 0 80 -4 80 -10 0 -6
-37 -10 -90 -10 l-90 0 0 120 0 120 84 0 c47 0 87 -4 91 -10z m97 -95 c22 -55
41 -101 43 -103 1 -1 20 43 41 98 35 95 49 119 60 107 2 -2 -16 -55 -40 -118
-32 -81 -49 -114 -61 -114 -12 0 -28 30 -55 98 -52 132 -55 140 -40 135 7 -2
30 -49 52 -103z m358 95 c0 -6 -32 -10 -76 -10 l-75 0 3 -42 3 -42 68 3 c55 2
67 0 67 -13 0 -13 -13 -16 -70 -16 l-70 0 0 -45 0 -45 74 0 c41 0 78 -4 81
-10 4 -6 -27 -10 -84 -10 l-91 0 0 120 0 120 85 0 c50 0 85 -4 85 -10z m80
-100 l0 -110 60 0 c33 0 60 -4 60 -10 0 -6 -30 -10 -70 -10 l-70 0 0 120 c0
73 4 120 10 120 6 0 10 -43 10 -110z m343 89 c76 -59 44 -202 -49 -225 -29 -8
-87 11 -109 36 -42 47 -36 149 12 187 37 30 110 31 146 2z m245 5 c16 -11 22
-25 22 -53 0 -51 -19 -65 -94 -71 l-61 -5 -3 -47 c-2 -27 -7 -48 -13 -48 -5 0
-9 51 -9 120 l0 120 68 0 c45 0 75 -5 90 -16z m242 6 c0 -6 -32 -10 -75 -10
l-75 0 0 -40 0 -40 70 0 c56 0 70 -3 70 -15 0 -12 -14 -15 -70 -15 l-70 0 0
-45 0 -45 80 0 c47 0 80 -4 80 -10 0 -6 -37 -10 -90 -10 l-90 0 0 120 0 120
85 0 c50 0 85 -4 85 -10z m230 -10 c25 -25 26 -64 1 -89 -19 -19 -19 -20 0
-72 11 -28 17 -54 14 -57 -9 -9 -22 10 -35 51 -14 44 -34 57 -89 57 l-41 0 0
-55 c0 -30 -4 -55 -10 -55 -6 0 -10 47 -10 120 l0 120 75 0 c62 0 79 -4 95
-20z m218 4 c12 -8 22 -22 22 -30 0 -19 -6 -18 -30 6 -24 24 -82 27 -104 4 -9
-8 -16 -19 -16 -23 0 -15 36 -39 70 -46 66 -14 90 -32 90 -69 0 -54 -59 -86
-124 -68 -32 9 -75 57 -62 69 4 5 17 -4 28 -20 17 -23 27 -27 67 -27 104 0 94
76 -12 94 -69 13 -98 65 -57 106 25 25 95 27 128 4z"/>
<path d="M16810 7605 c0 -9 6 -12 15 -9 8 4 12 10 9 15 -8 14 -24 10 -24 -6z"/>
<path d="M16874 7605 c3 -8 1 -15 -4 -15 -6 0 -10 -8 -10 -17 1 -16 2 -16 15
1 18 23 19 46 4 46 -6 0 -9 -7 -5 -15z"/>
<path d="M16826 7581 c-3 -5 1 -11 9 -15 9 -3 15 0 15 9 0 16 -16 20 -24 6z"/>
<path d="M2308 6673 c12 -2 30 -2 40 0 9 3 -1 5 -23 4 -22 0 -30 -2 -17 -4z"/>
<path d="M367 5103 c-4 -3 -7 -33 -7 -65 l0 -58 34 0 c19 0 36 6 38 13 4 10 3
82 -1 110 -1 9 -55 9 -64 0z m23 -59 c0 -8 -5 -12 -10 -9 -6 4 -8 11 -5 16 9
14 15 11 15 -7z m35 7 c3 -5 1 -12 -5 -16 -5 -3 -10 1 -10 9 0 18 6 21 15 7z"/>
<path d="M8620 4394 l0 -147 54 6 c101 10 146 55 146 144 0 84 -63 143 -152
143 l-48 0 0 -146z"/>
<path d="M9094 4450 c-25 -10 -56 -49 -48 -62 3 -4 39 -8 80 -8 65 0 74 2 74
18 0 39 -64 70 -106 52z"/>
<path d="M9845 4448 c-25 -13 -45 -38 -45 -55 0 -10 21 -13 80 -13 44 0 80 4
80 9 0 23 -15 43 -41 56 -33 18 -47 18 -74 3z"/>
<path d="M10388 4430 c-29 -22 -39 -69 -26 -117 27 -98 153 -77 165 28 4 38 1
50 -22 77 -32 38 -78 43 -117 12z"/>
<path d="M10807 4430 c-50 -39 -44 -132 9 -167 33 -21 87 -10 114 24 68 86
-38 210 -123 143z"/>
<path d="M11224 4450 c-25 -10 -56 -49 -48 -62 3 -4 39 -8 80 -8 65 0 74 2 74
18 0 39 -64 70 -106 52z"/>
<path d="M9721 3746 c-69 -38 -65 -155 7 -185 75 -31 145 62 107 142 -15 32
-50 57 -78 57 -7 -1 -23 -7 -36 -14z"/>
<path d="M10642 3737 c-38 -40 -29 -47 57 -47 75 0 79 1 74 20 -13 51 -94 67
-131 27z"/>
<path d="M1184 3028 c-19 -23 -19 -23 1 -6 16 13 24 14 40 6 18 -10 19 -10 6
5 -18 22 -24 21 -47 -5z"/>
<path d="M9310 2060 l0 -100 50 0 c69 0 100 30 100 95 0 26 -4 55 -10 65 -12
22 -60 40 -106 40 l-34 0 0 -100z"/>
<path d="M10464 2148 c-28 -13 -44 -49 -44 -99 0 -55 34 -89 90 -89 59 0 90
33 90 97 0 26 -6 55 -13 64 -28 36 -80 48 -123 27z"/>
<path d="M10690 2110 l0 -50 51 0 c66 0 89 13 89 50 0 37 -23 50 -89 50 l-51
0 0 -50z"/>
<path d="M11150 2115 l0 -45 65 0 c61 0 66 2 77 26 18 39 -16 64 -88 64 l-54
0 0 -45z"/>
</g>
</svg>
